<?xml version="1.0" encoding="UTF-8"?>
<svg id="Layer_1" data-name="Layer 1" xmlns="http://www.w3.org/2000/svg" xmlns:xlink="http://www.w3.org/1999/xlink" viewBox="0 0 74.23 48.29">
  <defs>
    <style>
      .cls-1 {
        fill: #44c9fa;
      }

      .cls-2 {
        fill: #fff;
      }

      .cls-3 {
        fill: none;
      }

      .cls-4 {
        fill: #ff91a6;
      }

      .cls-5 {
        clip-path: url(#clippath);
      }
    </style>
    <clipPath id="clippath">
      <path class="cls-3" d="M47.03,24.69c-.3,1.7-.54,3.41-.99,5.07-.32,1.19-1.4,1.69-2.56,1.92-.52.11-1.04.2-1.57.3-.25,1.58-.49,3.14-.76,4.69-.24,1.41-.49,2.82-.81,4.22-.12.55-.76.56-1.18.67-1.51.37-3.91-.66-4.68-2.02-.72-1.27-.8-2.65-.44-4.06.16-.63.29-1.26.44-1.93-1.61.29-3.14.59-4.68.84-1.42.23-2.86.43-4.23-.13-.87-.36-1.45-1.07-1.81-1.95-.25-.62-.61-2.02-.15-4.12.31-1.68.71-3.33,1.12-4.99.25-1.02.56-2.03.87-3.15-1.04.18-1.77.33-2.74.49-.41.07-.83.23-.93.66-.24,1.11-1.9,11.54-2.44,14.42-.08.42-.22.99-1.21,1.22-.89.21-1.96.43-2.66.33-1.18-.17-2.89-.78-3.31-2.87-.23-1.15-.14-1.95.05-3.13.13-.77.23-1.37.44-2.36.38-1.99.67-3.93,1.02-5.83.15-.83-.5-.61-1.23-.47-2.16.42-3.3.75-5.47,1.08-.95.15-1.76.1-2.35-.16-.62-.27-.61-.88-.58-1.12.15-1.34.25-2.28.67-3.47.23-.64.79-1.11,1.45-1.25,8.92-1.94,13.44-2.76,15.04-3.04,3.85-.68,4.05-.91,4.44-.02.34.78.64,1.66.82,2.21.31-.81.6-1.63.93-2.43.67-1.63,1.33-3.3,2.96-4.22.74-.42,3-.96,3.9-.97.72,0,.77.32.68,1.03-.17,1.33-2.43,12.64-2.91,15.86-.07.46.07.69.62.58,1.19-.25,1.43-.29,2.49-.51.8-.16.88-1.03.98-1.37.25-1.53.51-2.97.81-4.51.06-.3.43-.51.69-.58,1.61-.39,3.51-.67,5.13-1.02.04,0,.08-.02.13-.02,1.28-.13,1.25-.06,1.03,1.22-.08.59-.17,1.11-.27,1.66-.16.96-.34,1.92-.53,2.99.9-.16,1.71-.31,2.51-.46.27-.05.54-.18.81-.15.49.04.53.46.47.82ZM65.39,5.59c-2.19.43-5.28,1.15-7.47,1.57-1.57.31-3.16.63-4.73.95-2.48.5-12.04,2.33-13.99,2.87-.31.09-.71.43-.79.73-.36,1.45-.65,3.37-.9,4.85-.09.55.35.82.99.69,2.86-.6,11.43-2.06,12.83-2.33.05,0,.1.03.09.09-.21,1.21-1.45,8.18-1.83,10.64-.31,1.78.78,3.06,2.12,3.73,1.3.66,2.64.48,4.02.15.24-.06.48-.3.54-.54.26-1.07.47-2.15.67-3.24.28-1.52.52-3.05.79-4.57.28-1.56.58-3.12.86-4.68.14-.8.25-1.6.39-2.4.07-.41,1.13-1.03,2.18-1.25,1-.21,2.22-.57,3.2-.85.52-.15,1.16-.24,1.33-.9.41-1.52.63-2.82.86-4.39.02-.1.11-1.38-1.15-1.13ZM4.87,18.86c.23-.64.28-.96,1.45-1.25"/>
    </clipPath>
  </defs>
  <g>
    <path class="cls-4" d="M65.61,4.28c-.28-.29-.91-.75-1.98-.54-1.08.21-3.08.67-4.14.89-1.09.23-2.22.46-3.33.68-1.23.24-2.48.49-3.69.74l-1.05.21c-.61.12-1.69.34-2.94.58-4.06.8-9.62,1.89-11.13,2.3-.64.18-1.42.79-1.62,1.58-.26,1.06-.48,2.33-.68,3.52l-1.6,2.19c.04-.2.08-.4.12-.6.66-3.47,1.07-5.62,1.15-6.22.06-.45.15-1.2-.37-1.79-.51-.57-1.24-.57-1.48-.56-1.04,0-3.53.59-4.47,1.12-1.86,1.05-2.66,2.84-3.33,4.47-.24-.34-.65-.7-1.37-.76-.53-.04-1.18.08-2.47.32-.46.09-.98.18-1.6.29-3.7.66-8.91,1.71-15.08,3.05-1.08.24-1.95.99-2.31,2.01-.45,1.27-.57,2.29-.72,3.57l-.02.15c-.12,1.04.37,1.94,1.28,2.33.79.35,1.8.43,3,.24,1.4-.22,2.4-.43,3.45-.66.54-.12,1.09-.24,1.74-.37-.1.55-.19,1.11-.28,1.65-.18,1.04-.36,2.12-.56,3.2-.21,1-.32,1.61-.45,2.4-.2,1.21-.32,2.18-.04,3.55.42,2.08,1.99,3.47,4.3,3.8.91.13,2.08-.1,3.1-.35,1.77-.43,2.02-1.73,2.09-2.15.27-1.45.81-4.71,1.33-7.86.43-2.63.88-5.35,1.06-6.28,0,0,.01,0,.02,0,.32-.05.61-.1.9-.16-.13.46-.25.91-.36,1.37l-.06.26c-.38,1.55-.77,3.16-1.06,4.77-.52,2.39-.09,4.02.21,4.78.5,1.26,1.35,2.16,2.46,2.61,1.75.71,3.55.42,4.87.2.98-.16,1.95-.34,2.95-.52-.01.05-.03.1-.04.16-.47,1.8-.28,3.46.55,4.93.88,1.56,3.1,2.69,5.01,2.69.34,0,.67-.04.98-.11.04-.01.1-.02.17-.04.44-.08,1.6-.3,1.87-1.52.32-1.42.57-2.83.82-4.28.19-1.09.36-2.2.53-3.27.03-.21.06-.41.1-.62.26-.05.52-.1.78-.15,1.9-.39,3.07-1.32,3.46-2.77.29-1.09.5-2.19.69-3.27.22,1.47,1.19,2.73,2.77,3.52.79.4,1.67.54,2.52.54.99,0,1.95-.19,2.71-.37.67-.16.84-.66,1-1.33.29-1.17.51-2.33.69-3.3.16-.85.3-1.72.45-2.56.11-.66.23-1.35.35-2.02.14-.78.29-1.57.43-2.34.14-.77.29-1.56.43-2.34.08-.44.15-.89.22-1.32.05-.34.11-.7.17-1.04.07-.03.18-.07.36-.1.35-.08.76-.15,1.2-.22.76-.13,2.46-.51,3.14-.7.05-.01.1-.03.16-.04.54-.14,2.06-.52,2.39-1.75.42-1.59.66-2.96.89-4.53h0c.06-.39.04-1.28-.56-1.91ZM33.38,23.67c-.03.14-.05.28-.06.42,0,.06-.02.14-.03.21-.22.04-.4.08-.57.11-.27.05-.49.1-.77.15.18-1.06.44-2.51.74-4.09.42.08.88.17,1.36.27-.04.14-.07.28-.11.43-.2.79-.42,1.6-.56,2.49ZM46.59,23.12c-.07-.2-.16-.35-.25-.47-.28-.37-.71-.6-1.21-.64h0c-.39-.04-.72.06-.96.12-.07.02-.13.04-.17.04-.28.05-.56.1-.84.16.08-.45.16-.89.23-1.33l.02-.12c.09-.52.17-1.01.25-1.57v-.05c.15-.82.27-1.52-.27-2.1-.33-.35-.74-.46-1.18-.48,2.06-.41,4.21-.83,5.68-1.12-.35,1.97-.93,5.29-1.31,7.55Z"/>
    <g class="cls-5">
      <rect class="cls-1" x="2.83" y="6.54" width="68.57" height="35.2" transform="translate(-4.1 7.96) rotate(-11.61)"/>
      <g>
        <path class="cls-2" d="M48.09,22.45c-.26-.02-.53.11-.8.16-.8.16-1.61.31-2.51.48.18-1.07.35-2.03.51-2.99.09-.55.18-1.08.25-1.67.21-1.29.25-1.36-1.03-1.22-.04,0-.09.01-.13.02-1.62.36-3.51.66-5.12,1.06-.26.06-.63.28-.68.58-.29,1.54-.55,2.98-.78,4.51-.1.34-.18,1.21-.97,1.38-1.06.22-1.3.26-2.49.52-.55.12-.69-.11-.62-.57.46-3.23,2.65-14.55,2.81-15.88.09-.72.04-1.04-.68-1.03-.9.01-3.16.57-3.89.99-1.74,1-2.36,2.87-3.08,4.61-.04.09-.1.26-.13.36-.21.57-1.02.58-1.24.02-.07-.17-.14-.35-.22-.51-.4-.89-.6-.66-4.44.05-1.59.29-6.1,1.15-15.01,3.15-.67.15-1.23.64-1.45,1.29-.41,1.18-.5,2.11-.64,3.44-.03.25-.03.85.59,1.12.59.25,1.33.25,2.27.1,2.17-.35,2.39-.45,4.55-.87,2.33-.46,2.16.67,2.01,1.5-.34,1.91-.4,2.6-.77,4.59-.2.99-.31,1.59-.43,2.36-.18,1.18-.27,1.98-.03,3.13.44,2.09,2.15,2.69,3.33,2.85.71.1,1.77-.13,2.66-.34.99-.24,1.13-.82,1.2-1.23.51-2.89,1.6-11.56,1.86-12.67.43-1.82,1.02-2.48,2.5-2.64.76-.08,1.28.45,1.05,1.53-.11.53-1.05,4.63-1.34,6.3-.44,2.1-.07,3.5.18,4.12.36.88.94,1.59,1.82,1.94,1.38.55,2.82.34,4.24.1,1.54-.26,3.06-.57,4.67-.87-.15.67-.27,1.31-.43,1.93-.36,1.41-.26,2.79.46,4.05.78,1.35,3.18,2.37,4.69,1.99.42-.11,1.05-.12,1.17-.68.3-1.4.54-2.81.78-4.23.17-1.03.33-2.07.49-3.11.14-.95.86-1.7,1.8-1.9,0,0,.01,0,.02,0,1.16-.25,2.23-.74,2.55-1.94.44-1.66.67-3.38.95-5.07.06-.36.01-.78-.47-.82Z"/>
        <path class="cls-2" d="M66.66,4.06c-2.19.44-5.28,1.18-7.46,1.62-1.57.32-3.15.65-4.72.98-2.48.52-12.03,2.41-13.97,2.96-.31.09-.71.44-.78.74-.35,1.45-.63,3.38-.87,4.85-.09.55.35.82.99.68,2.26-.49,8.49-1.62,11.37-2.21.84-.17,1.4.68,1.25,1.52-.43,2.56-1.2,7.12-1.48,9.01-.3,1.78.8,3.05,2.14,3.72,1.3.65,2.64.46,4.02.12.24-.06.48-.3.54-.54.25-1.07.46-2.16.65-3.24.27-1.52.5-3.05.76-4.57.27-1.56,1.48-3.16,1.75-4.72.14-.8.22-1.8.35-2.59.07-.41.37-.88,1.86-1.22.99-.23,1.85-.38,2.83-.66.52-.15.92-.27,1.09-.92.4-1.52.61-2.82.83-4.4.02-.1.1-1.38-1.16-1.12Z"/>
      </g>
    </g>
    <g>
      <path d="M34.42,9.14c.71,0,.75.32.66,1.03-.17,1.33-2.43,12.64-2.91,15.86-.06.38.03.6.37.6.07,0,.15,0,.25-.03,1.19-.25,1.43-.29,2.49-.51.8-.16.88-1.03.98-1.37.25-1.53.43-2.08.74-3.62.06-.3.43-.51.69-.58,1.61-.39,3.42-.74,5.04-1.08.04,0,.08-.02.13-.02.28-.03.49-.05.66-.05.6,0,.55.26.37,1.27-.08.59-.44,2.76-.63,3.83.9-.16,1.71-.31,2.51-.46.25-.05.5-.16.74-.16.02,0,.04,0,.07,0,.49.04.53.46.47.82-.3,1.7-.54,3.41-.99,5.07-.32,1.19-1.4,1.69-2.56,1.92-.52.11-1.04.2-1.57.3-.25,1.58-.49,3.14-.76,4.69-.24,1.41-.49,2.82-.81,4.22-.12.55-.76.56-1.18.67-.21.05-.44.08-.68.08-1.47,0-3.34-.93-4-2.1-.72-1.27-.8-2.65-.44-4.06.16-.63.29-1.26.44-1.93-1.61.29-3.14.59-4.68.84-.74.12-1.48.23-2.22.23-.68,0-1.36-.09-2.02-.36-.87-.36-1.45-1.07-1.81-1.95-.25-.62-.61-2.02-.15-4.12.31-1.68.71-3.33,1.12-4.99.25-1.02.61-2.15.92-3.27-1.04.18-1.67.32-2.79.61-.4.1-.83.23-.93.66-.24,1.11-1.9,11.54-2.44,14.42-.08.42-.22.99-1.21,1.22-.73.18-1.58.35-2.26.35-.14,0-.28,0-.4-.03-1.18-.17-2.89-.78-3.31-2.87-.23-1.15-.14-1.95.05-3.13.12-.77.23-1.37.44-2.36.38-1.99.67-3.93,1.02-5.83.04-.22.09-.54.1-.66,0-.03-.02-.05-.04-.05,0,0,0,0,0,0-.27.02-.83.15-1.29.24-2.16.42-3.3.75-5.47,1.08-.72.1-1.31.17-1.76.17-.95,0-1.32-.33-1.17-1.46.15-1.33.25-2.26.66-3.44.23-.65.28-.98,1.46-1.28,8.92-1.94,13.44-2.76,15.03-3.04,2.07-.37,3.09-.6,3.64-.6.48,0,.62.17.8.59.34.78.64,1.66.82,2.21.31-.81.6-1.63.93-2.43.67-1.63,1.33-3.3,2.96-4.22.74-.42,3-.96,3.9-.97,0,0,.01,0,.02,0M34.42,8.18h-.03c-1.02,0-3.45.57-4.36,1.09-1.88,1.06-2.65,2.94-3.33,4.59l-.04.1s-.02.06-.04.09c-.25-.53-.66-1.04-1.62-1.04-.48,0-1.09.12-2.21.32-.45.08-.98.18-1.61.29-3.7.66-8.91,1.71-15.07,3.05-1.53.39-1.85.99-2.13,1.79l-.04.1c-.44,1.23-.55,2.23-.69,3.5l-.02.15c-.07.53-.1,1.31.41,1.9.49.56,1.22.63,1.71.63s1.14-.08,1.89-.18c1.41-.22,2.4-.43,3.46-.66.62-.13,1.27-.27,2.05-.43-.12.65-.23,1.3-.34,1.96-.18,1.05-.36,2.13-.56,3.21-.21.98-.32,1.6-.45,2.39-.19,1.19-.31,2.14-.04,3.47.41,2.02,1.87,3.31,4.11,3.63.17.02.35.04.54.04.8,0,1.74-.2,2.48-.38,1.64-.39,1.86-1.59,1.93-1.98.27-1.45.8-4.7,1.32-7.85.46-2.76.93-5.6,1.08-6.4.08-.03.2-.06.26-.07.46-.12.84-.21,1.19-.29-.18.6-.35,1.22-.49,1.8l-.06.26c-.38,1.56-.77,3.17-1.06,4.78-.51,2.32-.09,3.91.2,4.64.48,1.2,1.29,2.06,2.34,2.49.72.29,1.5.43,2.38.43.81,0,1.61-.12,2.37-.24,1.08-.17,2.13-.37,3.24-.57.01,0,.03,0,.04,0-.04.16-.08.32-.12.49-.45,1.74-.28,3.34.53,4.77.8,1.42,2.97,2.58,4.83,2.58.32,0,.63-.04.91-.11.06-.01.12-.03.18-.04.44-.08,1.46-.28,1.7-1.35.32-1.41.57-2.82.82-4.27.19-1.09.36-2.18.53-3.27l.12-.77c.31-.06.62-.12.93-.18,1.82-.37,2.92-1.25,3.29-2.61.36-1.32.59-2.68.81-4,.07-.39.13-.77.2-1.15.12-.69-.08-1.13-.27-1.38-.24-.32-.62-.52-1.05-.56-.05,0-.1,0-.15,0-.28,0-.53.07-.72.12-.06.02-.13.04-.19.05-.38.07-.77.14-1.16.21.17-1,.35-2.1.41-2.51v-.04c.14-.8.24-1.37-.17-1.87-.39-.46-.96-.46-1.15-.46-.2,0-.44.02-.76.05-.08,0-.15.02-.23.04-.54.12-1.1.23-1.66.35-1.14.24-2.31.48-3.4.74-.6.14-1.27.61-1.41,1.33-.12.59-.22,1.03-.31,1.45-.14.63-.27,1.22-.42,2.14-.01.05-.02.1-.04.15-.03.12-.1.42-.17.48l-.82.16c-.36.07-.65.13-1.08.22.33-2.01,1.04-5.72,1.67-9.04.6-3.12,1.07-5.59,1.14-6.21.05-.41.14-1.1-.32-1.61-.44-.5-1.08-.5-1.29-.5h0Z"/>
      <path d="M65.7,5.56c.94,0,.87,1.07.85,1.16-.23,1.57-.46,2.87-.86,4.39-.17.65-.81.75-1.33.9-.98.28-2.15.48-3.15.69-1.05.22-2.01.62-2.17,1.39-.17.79-.25,1.46-.39,2.25-.28,1.56-.58,3.12-.86,4.68-.27,1.52-.52,3.05-.79,4.57-.2,1.08-.41,2.17-.67,3.24-.06.24-.3.48-.54.54-.7.17-1.39.3-2.07.3s-1.31-.12-1.95-.44c-1.34-.68-2.43-1.95-2.12-3.73.37-2.46,1.62-9.43,1.83-10.64,0-.05-.03-.09-.07-.09,0,0,0,0-.01,0-1.4.27-10.01,1.89-12.88,2.49-.11.02-.21.03-.31.03-.47,0-.76-.26-.68-.72.25-1.48.54-3.4.9-4.85.07-.3.47-.65.79-.73,1.95-.54,11.51-2.36,13.99-2.87,1.57-.32,3.15-.65,4.73-.95,2.19-.42,5.28-1.15,7.47-1.57.11-.02.21-.03.3-.03M65.7,4.6c-.16,0-.32.02-.49.05-1.09.21-2.42.5-3.7.78-1.31.28-2.67.58-3.76.79-1.23.24-2.46.49-3.69.74l-1.05.21c-.62.13-1.68.33-2.95.58-3.83.75-9.61,1.89-11.11,2.3-.59.16-1.29.74-1.46,1.43-.3,1.23-.56,2.75-.78,4.1l-.14.82c-.08.48.03.94.32,1.28.3.36.77.56,1.3.56.16,0,.33-.02.51-.05,2.25-.47,8.03-1.57,11.14-2.16l.47-.09v.02c-.43,2.4-1.31,7.39-1.61,9.39-.34,1.95.65,3.73,2.63,4.73.73.37,1.51.55,2.38.55s1.67-.17,2.3-.32c.59-.14,1.1-.65,1.25-1.24.28-1.17.5-2.32.68-3.29.16-.85.3-1.7.45-2.55.11-.67.23-1.35.35-2.02.14-.78.28-1.56.43-2.34.14-.78.29-1.56.43-2.34.05-.3.1-.57.14-.85.07-.46.15-.9.25-1.38.02-.1.32-.42,1.44-.66.29-.06.59-.12.9-.18.78-.16,1.59-.32,2.32-.53l.16-.04c.54-.14,1.53-.41,1.83-1.53.42-1.58.66-2.94.88-4.5h0c.05-.32.05-1.04-.4-1.6-.33-.42-.83-.65-1.4-.65h0Z"/>
    </g>
  </g>
  <g>
    <path d="M46.4,38.39c-.52.1-.92.06-1.2-.12-.28-.18-.42-.5-.42-.96,0-.09,0-.17,0-.26,0-.09.02-.18.03-.27.07-.39.19-.73.36-1.02.18-.29.41-.54.69-.72s.62-.32,1-.39c.31-.06.58-.06.81-.02.23.04.41.14.54.28.13.14.2.34.2.59,0,.05,0,.1,0,.15,0,.05-.01.11-.02.16l-.93.17s.01-.06.01-.09c0-.03,0-.06,0-.08,0-.12-.03-.22-.08-.29-.05-.07-.12-.12-.22-.15-.09-.03-.21-.03-.34,0-.15.03-.28.08-.4.14-.12.07-.22.15-.3.25-.08.1-.15.21-.21.34-.05.13-.1.27-.12.42-.02.09-.03.17-.04.23-.01.06-.02.11-.02.15s0,.08,0,.11c0,.03,0,.06,0,.09,0,.14.03.26.08.36.05.09.13.16.23.19.1.03.23.04.39,0,.17-.03.32-.09.45-.17.13-.08.23-.18.32-.3s.14-.26.16-.42l.89-.16c-.05.33-.16.61-.32.86-.16.24-.38.44-.64.6-.26.15-.56.26-.91.33Z"/>
    <path d="M48.77,37.89l.59-3.64.95-.17-.47,2.86,1.82-.33-.13.78-2.77.51Z"/>
    <path d="M52.25,37.26l.47-2.86-1.18.22.13-.78,3.3-.61-.13.78-1.18.22-.47,2.86-.95.17Z"/>
  </g>
</svg>